<svg width="19" height="18" viewBox="0 0 19 18" fill="none" xmlns="http://www.w3.org/2000/svg">
<g clip-path="url(#clip0_5043_59785)">
<path d="M4.16733 11.057C3.67124 8.74182 3.42319 7.58428 4.04502 6.81509C4.66685 6.0459 5.85069 6.0459 8.21837 6.0459H11.7787C14.1464 6.0459 15.3302 6.0459 15.9521 6.81509C16.5739 7.58428 16.3258 8.74182 15.8297 11.057L15.5338 12.438C15.1976 14.0072 15.0294 14.7918 14.4597 15.2523C13.89 15.7129 13.0876 15.7129 11.4827 15.7129H8.5143C6.90948 15.7129 6.10707 15.7129 5.53736 15.2523C4.96765 14.7918 4.79952 14.0072 4.46327 12.438L4.16733 11.057Z" stroke="#1C1A1E" stroke-width="1.3"/>
<path d="M7.23828 9.5H12.7623" stroke="#1C1A1E" stroke-width="1.3" stroke-linecap="round" stroke-linejoin="round"/>
<path d="M8.61719 12.6074H11.3792" stroke="#1C1A1E" stroke-width="1.3" stroke-linecap="round" stroke-linejoin="round"/>
<path d="M14.1457 5.87453L12.0742 3.28516" stroke="#1C1A1E" stroke-width="1.3" stroke-linecap="round" stroke-linejoin="round"/>
<path d="M5.85547 5.87453L7.92697 3.28516" stroke="#1C1A1E" stroke-width="1.3" stroke-linecap="round" stroke-linejoin="round"/>
</g>
<defs>
<clipPath id="clip0_5043_59785">
<rect width="14.4" height="14.4" fill="white" transform="translate(2.80078 2.2998)"/>
</clipPath>
</defs>
</svg>
