<svg width="19" height="18" viewBox="0 0 19 18" fill="none" xmlns="http://www.w3.org/2000/svg">
<path d="M15.2561 4.63124L12.9014 2.27518C12.4629 1.83461 11.9415 1.48532 11.3673 1.24751C10.7931 1.00969 10.1774 0.888064 9.55583 0.889664H6.50431C5.60839 0.890737 4.74948 1.24712 4.11596 1.88063C3.48245 2.51414 3.12607 3.37306 3.125 4.26898V13.7311C3.12607 14.627 3.48245 15.4859 4.11596 16.1194C4.74948 16.7529 5.60839 17.1093 6.50431 17.1104H13.2629C14.1589 17.1093 15.0178 16.7529 15.6513 16.1194C16.2848 15.4859 16.6412 14.627 16.6423 13.7311V7.97608C16.6439 7.35458 16.5223 6.73891 16.2843 6.16476C16.0464 5.5906 15.6969 5.06936 15.2561 4.63124ZM14.3004 5.58691C14.5068 5.79923 14.6843 6.03784 14.8282 6.29657H11.9112C11.732 6.29657 11.5601 6.22536 11.4333 6.09861C11.3066 5.97186 11.2354 5.79995 11.2354 5.6207V2.70368C11.4942 2.84759 11.733 3.02482 11.9457 3.23085L14.3004 5.58691ZM15.2905 13.7311C15.2905 14.2688 15.0769 14.7845 14.6967 15.1648C14.3164 15.545 13.8007 15.7586 13.2629 15.7586H6.50431C5.96656 15.7586 5.45084 15.545 5.07059 15.1648C4.69035 14.7845 4.47673 14.2688 4.47673 13.7311V4.26898C4.47673 3.73123 4.69035 3.2155 5.07059 2.83526C5.45084 2.45501 5.96656 2.24139 6.50431 2.24139H9.55583C9.66668 2.24139 9.77414 2.26302 9.88363 2.27315V5.6207C9.88363 6.15845 10.0972 6.67418 10.4775 7.05442C10.8577 7.43467 11.3735 7.64829 11.9112 7.64829H15.2588C15.2689 7.75778 15.2905 7.86457 15.2905 7.97608V13.7311Z" fill="black"/>
</svg>
