<svg width="64" height="65" viewBox="0 0 64 65" fill="none" xmlns="http://www.w3.org/2000/svg">
<circle cx="32" cy="32.1172" r="32" fill="#1C1A1E"/>
<path d="M48.625 19.8858C44.6445 16.6827 38.3477 16.1397 38.0781 16.1202C37.6602 16.085 37.2617 16.3194 37.0898 16.7061C37.0742 16.7295 36.9375 17.0459 36.7852 17.5381C39.418 17.9834 42.6523 18.878 45.5781 20.6944C46.0469 20.9834 46.1914 21.6006 45.9023 22.0694C45.7109 22.378 45.3867 22.5459 45.0508 22.5459C44.8711 22.5459 44.6875 22.4952 44.5234 22.3936C39.4922 19.2725 33.2109 19.1162 32 19.1162C30.7891 19.1162 24.5039 19.2725 19.4766 22.3936C19.0078 22.6866 18.3906 22.542 18.1016 22.0733C17.8086 21.6006 17.9531 20.9873 18.4219 20.6944C21.3477 18.8819 24.582 17.9834 27.2148 17.542C27.0625 17.0459 26.9258 16.7334 26.9141 16.7061C26.7383 16.3194 26.3438 16.0772 25.9219 16.1202C25.6523 16.1397 19.3555 16.6827 15.3203 19.9287C13.2148 21.878 9 33.2686 9 43.1162C9 43.292 9.04687 43.46 9.13281 43.6123C12.0391 48.7217 19.9727 50.0577 21.7812 50.1162C21.7891 50.1162 21.8008 50.1162 21.8125 50.1162C22.1328 50.1162 22.4336 49.9639 22.6211 49.7061L24.4492 47.1905C19.5156 45.917 16.9961 43.753 16.8516 43.6241C16.4375 43.2608 16.3984 42.628 16.7656 42.2139C17.1289 41.7998 17.7617 41.7608 18.1758 42.1241C18.2344 42.1787 22.875 46.1162 32 46.1162C41.1406 46.1162 45.7812 42.1631 45.8281 42.1241C46.2422 41.7647 46.8711 41.7998 47.2383 42.2178C47.6016 42.6319 47.5625 43.2608 47.1484 43.6241C47.0039 43.753 44.4844 45.917 39.5508 47.1905L41.3789 49.7061C41.5664 49.9639 41.8672 50.1162 42.1875 50.1162C42.1992 50.1162 42.2109 50.1162 42.2188 50.1162C44.0273 50.0577 51.9609 48.7217 54.8672 43.6123C54.9531 43.46 55 43.292 55 43.1162C55 33.2686 50.7852 21.878 48.625 19.8858ZM25.5 39.1162C23.5664 39.1162 22 37.3272 22 35.1162C22 32.9053 23.5664 31.1162 25.5 31.1162C27.4336 31.1162 29 32.9053 29 35.1162C29 37.3272 27.4336 39.1162 25.5 39.1162ZM38.5 39.1162C36.5664 39.1162 35 37.3272 35 35.1162C35 32.9053 36.5664 31.1162 38.5 31.1162C40.4336 31.1162 42 32.9053 42 35.1162C42 37.3272 40.4336 39.1162 38.5 39.1162Z" fill="white"/>
</svg>
