<svg width="18" height="18" viewBox="0 0 18 18" fill="none" xmlns="http://www.w3.org/2000/svg">
<g clip-path="url(#clip0_5165_20120)">
<path d="M7.31262 10.2867L7.50206 10.4999L7.50206 10.4998L2.05074 4.36676L2.04925 4.36508C1.77219 4.05148 1.59147 3.66462 1.52877 3.25089C1.46607 2.83715 1.52406 2.41411 1.69577 2.03251C1.86748 1.6509 2.14562 1.32693 2.49685 1.09945C2.84693 0.872712 3.25479 0.751429 3.67182 0.750011M7.31262 10.2867L3.67592 0.750001C3.67456 0.750003 3.67319 0.750006 3.67182 0.750011M7.31262 10.2867L2.0513 4.36775C2.05122 4.36766 2.05114 4.36757 2.05106 4.36748C1.77331 4.05403 1.59196 3.66706 1.52879 3.25305C1.4656 2.83892 1.52336 2.41535 1.69512 2.03326C1.86688 1.65116 2.14533 1.3268 2.497 1.09915C2.84708 0.872541 3.25488 0.751369 3.67182 0.750011M7.31262 10.2867L3.67182 0.750011M14.3271 0.75C14.3273 0.75 14.3276 0.749999 14.3278 0.75H14.3271ZM14.3271 0.75C14.3269 0.75 14.3268 0.75 14.3266 0.75C14.3265 0.75 14.3263 0.75 14.3262 0.749999L14.3271 0.000406504V0.75Z" fill="white" stroke="white" stroke-width="1.5"/>
</g>
<defs>
<clipPath id="clip0_5165_20120">
<rect width="18" height="18" fill="white"/>
</clipPath>
</defs>
</svg>
