<svg width="24" height="24" viewBox="0 0 24 24" fill="none" xmlns="http://www.w3.org/2000/svg">
<g clip-path="url(#clip0_5165_51149)">
<path d="M-0.175781 -0.359375H23.8242V23.6406H-0.175781V-0.359375Z" fill="#E9ECEF"/>
<path d="M6.58422 4.48141L4.78422 2.69141L3.37422 4.10141L5.16422 5.89141L6.58422 4.48141ZM3.82422 10.1414H0.824219V12.1414H3.82422V10.1414ZM12.8242 0.191406H10.8242V3.14141H12.8242V0.191406ZM20.2742 4.10141L18.8642 2.69141L17.0742 4.48141L18.4842 5.89141L20.2742 4.10141ZM17.0642 17.8014L18.8542 19.6014L20.2642 18.1914L18.4642 16.4014L17.0642 17.8014ZM19.8242 10.1414V12.1414H22.8242V10.1414H19.8242ZM11.8242 5.14141C8.51422 5.14141 5.82422 7.83141 5.82422 11.1414C5.82422 14.4514 8.51422 17.1414 11.8242 17.1414C15.1342 17.1414 17.8242 14.4514 17.8242 11.1414C17.8242 7.83141 15.1342 5.14141 11.8242 5.14141ZM10.8242 22.0914H12.8242V19.1414H10.8242V22.0914ZM3.37422 18.1814L4.78422 19.5914L6.57422 17.7914L5.16422 16.3814L3.37422 18.1814Z" fill="#FF9E2D"/>
</g>
<defs>
<clipPath id="clip0_5165_51149">
<rect width="24" height="24" fill="white"/>
</clipPath>
</defs>
</svg>
