<svg width="18" height="19" viewBox="0 0 18 19" fill="none" xmlns="http://www.w3.org/2000/svg">
<g clip-path="url(#clip0_5088_59417)">
<path d="M12.0257 16.2888C11.4819 17.4641 10.2947 18.2238 9.00019 18.2238C7.27519 18.2238 5.85169 16.9061 5.68519 15.2238H4.53844C3.38269 15.2238 2.30644 14.7071 1.58419 13.8056C0.862688 12.9063 0.591188 11.7431 0.840938 10.6151L1.83319 6.78557C1.93744 6.38507 2.34544 6.14432 2.74744 6.24782C3.14869 6.35132 3.38869 6.76082 3.28519 7.16207L2.29969 10.9653C2.15494 11.6216 2.31844 12.3243 2.75494 12.8673C3.19144 13.4118 3.84169 13.7238 4.53919 13.7238H9.75094C10.1649 13.7238 10.5009 14.0598 10.5009 14.4738C10.5009 14.8878 10.1649 15.2238 9.75094 15.2238H7.20019C7.35694 16.0758 8.10469 16.7238 9.00094 16.7238C9.71269 16.7238 10.3659 16.3061 10.6652 15.6588C10.8392 15.2831 11.2869 15.1203 11.6604 15.2928C12.0362 15.4668 12.1997 15.9123 12.0257 16.2888ZM17.7804 18.0041C17.6342 18.1503 17.4422 18.2238 17.2502 18.2238C17.0582 18.2238 16.8662 18.1503 16.7199 18.0041L0.219938 1.50407C-0.0733125 1.21082 -0.0733125 0.73682 0.219938 0.44357C0.513188 0.15032 0.987188 0.15032 1.28044 0.44357L3.57919 2.74232C4.90744 1.15307 6.88369 0.22382 9.00019 0.22382C12.1637 0.22382 14.9649 2.35232 15.8117 5.40032L17.1144 10.4358C17.4294 11.5721 17.1984 12.7766 16.4777 13.7268C16.1964 14.0966 15.8597 14.4041 15.4809 14.6433L17.7804 16.9428C18.0737 17.2361 18.0737 17.7101 17.7804 18.0033V18.0041ZM4.64569 3.80882L14.3739 13.5371C14.7294 13.3833 15.0399 13.1403 15.2822 12.8216C15.7179 12.2471 15.8582 11.5196 15.6654 10.8251L14.3634 5.78957C13.6997 3.40157 11.4932 1.72457 9.00094 1.72457C7.28644 1.72457 5.69119 2.49632 4.64644 3.80957L4.64569 3.80882Z" fill="#1C1A1E"/>
</g>
<defs>
<clipPath id="clip0_5088_59417">
<rect width="18" height="18" fill="white" transform="translate(0 0.223633)"/>
</clipPath>
</defs>
</svg>
