<svg width="24" height="24" viewBox="0 0 24 24" fill="none" xmlns="http://www.w3.org/2000/svg">
<mask id="path-1-inside-1_5165_51132" fill="white">
<path fill-rule="evenodd" clip-rule="evenodd" d="M14.639 2.43451C16.5517 0.52183 19.6528 0.52183 21.5654 2.43451C23.4782 4.3472 23.4782 7.44828 21.5654 9.36095L12.0187 18.9077C11.4807 19.4458 11.152 19.7744 10.7858 20.0601C10.3544 20.3967 9.88748 20.6852 9.39351 20.9207C8.97423 21.1204 8.53334 21.2674 7.81142 21.508L4.45152 22.628L3.64485 22.8969C2.92281 23.1375 2.12676 22.9495 1.58859 22.4114C1.05041 21.8732 0.86249 21.0772 1.10317 20.3552L2.49201 16.1885C2.73261 15.4667 2.87955 15.0258 3.07937 14.6065C3.3148 14.1125 3.60333 13.6456 3.9399 13.2141C4.22554 12.8479 4.55417 12.5193 5.09231 11.9812L14.639 2.43451ZM4.40801 20.6548L3.34527 19.592L4.261 16.8448C4.52761 16.045 4.63774 15.7197 4.78165 15.4178C4.95816 15.0474 5.17447 14.6974 5.42679 14.3738C5.63252 14.1101 5.87416 13.8662 6.47033 13.2699L13.8761 5.86422C14.1818 6.63107 14.6991 7.5566 15.5713 8.42878C16.4433 9.30098 17.369 9.81818 18.1357 10.1239L10.73 17.5296C10.1338 18.1258 9.88987 18.3674 9.62612 18.5732C9.30261 18.8255 8.9526 19.0419 8.58224 19.2184C8.28026 19.3623 7.95506 19.4724 7.1552 19.7389L4.40801 20.6548ZM19.6384 8.6213C19.4826 8.58712 19.288 8.5357 19.0668 8.45893C18.4583 8.24782 17.6579 7.84863 16.9046 7.09539C16.1513 6.34214 15.7522 5.54175 15.5411 4.93325C15.4643 4.71196 15.4129 4.51732 15.3787 4.36164L15.9724 3.76791C17.1487 2.59164 19.0558 2.59164 20.2321 3.76791C21.4083 4.94418 21.4083 6.85129 20.2321 8.02755L19.6384 8.6213Z"/>
</mask>
<path fill-rule="evenodd" clip-rule="evenodd" d="M14.639 2.43451C16.5517 0.52183 19.6528 0.52183 21.5654 2.43451C23.4782 4.3472 23.4782 7.44828 21.5654 9.36095L12.0187 18.9077C11.4807 19.4458 11.152 19.7744 10.7858 20.0601C10.3544 20.3967 9.88748 20.6852 9.39351 20.9207C8.97423 21.1204 8.53334 21.2674 7.81142 21.508L4.45152 22.628L3.64485 22.8969C2.92281 23.1375 2.12676 22.9495 1.58859 22.4114C1.05041 21.8732 0.86249 21.0772 1.10317 20.3552L2.49201 16.1885C2.73261 15.4667 2.87955 15.0258 3.07937 14.6065C3.3148 14.1125 3.60333 13.6456 3.9399 13.2141C4.22554 12.8479 4.55417 12.5193 5.09231 11.9812L14.639 2.43451ZM4.40801 20.6548L3.34527 19.592L4.261 16.8448C4.52761 16.045 4.63774 15.7197 4.78165 15.4178C4.95816 15.0474 5.17447 14.6974 5.42679 14.3738C5.63252 14.1101 5.87416 13.8662 6.47033 13.2699L13.8761 5.86422C14.1818 6.63107 14.6991 7.5566 15.5713 8.42878C16.4433 9.30098 17.369 9.81818 18.1357 10.1239L10.73 17.5296C10.1338 18.1258 9.88987 18.3674 9.62612 18.5732C9.30261 18.8255 8.9526 19.0419 8.58224 19.2184C8.28026 19.3623 7.95506 19.4724 7.1552 19.7389L4.40801 20.6548ZM19.6384 8.6213C19.4826 8.58712 19.288 8.5357 19.0668 8.45893C18.4583 8.24782 17.6579 7.84863 16.9046 7.09539C16.1513 6.34214 15.7522 5.54175 15.5411 4.93325C15.4643 4.71196 15.4129 4.51732 15.3787 4.36164L15.9724 3.76791C17.1487 2.59164 19.0558 2.59164 20.2321 3.76791C21.4083 4.94418 21.4083 6.85129 20.2321 8.02755L19.6384 8.6213Z" fill="white"/>
<path d="M14.639 2.43451L13.2248 1.02028L13.2248 1.0203L14.639 2.43451ZM21.5654 2.43451L20.1512 3.8487L20.1512 3.84874L21.5654 2.43451ZM21.5654 9.36095L20.1513 7.94672L20.1512 7.94674L21.5654 9.36095ZM12.0187 18.9077L13.4329 20.3219L13.4329 20.3219L12.0187 18.9077ZM10.7858 20.0601L12.0159 21.6371L12.0162 21.6369L10.7858 20.0601ZM9.39351 20.9207L10.2537 22.7262L10.2541 22.726L9.39351 20.9207ZM7.81142 21.508L7.17902 19.6106L7.17895 19.6106L7.81142 21.508ZM4.45152 22.628L3.81905 20.7306L3.81904 20.7306L4.45152 22.628ZM3.64485 22.8969L4.27715 24.7943L4.27733 24.7942L3.64485 22.8969ZM1.58859 22.4114L3.00282 20.9972L3.0028 20.9972L1.58859 22.4114ZM1.10317 20.3552L3.00052 20.9877L3.00054 20.9876L1.10317 20.3552ZM2.49201 16.1885L4.38938 16.821L4.38939 16.8209L2.49201 16.1885ZM3.07937 14.6065L4.8848 15.467L4.88486 15.4669L3.07937 14.6065ZM3.9399 13.2141L5.51685 14.4443L5.51689 14.4442L3.9399 13.2141ZM5.09231 11.9812L6.50644 13.3955L6.50652 13.3954L5.09231 11.9812ZM4.40801 20.6548L2.99376 22.0689L3.86782 22.9431L5.04052 22.5521L4.40801 20.6548ZM3.34527 19.592L1.4479 18.9595L1.05704 20.1321L1.93102 21.0062L3.34527 19.592ZM4.261 16.8448L2.36364 16.2123L2.36363 16.2123L4.261 16.8448ZM4.78165 15.4178L6.58708 16.2782L6.5871 16.2782L4.78165 15.4178ZM5.42679 14.3738L3.84981 13.1437L3.8496 13.144L5.42679 14.3738ZM6.47033 13.2699L5.05613 11.8557L5.05602 11.8558L6.47033 13.2699ZM13.8761 5.86422L15.734 5.1238L14.6096 2.30234L12.4619 4.45L13.8761 5.86422ZM15.5713 8.42878L16.9856 7.01466L16.9855 7.01455L15.5713 8.42878ZM18.1357 10.1239L19.5499 11.5381L21.6972 9.39076L18.8764 8.26609L18.1357 10.1239ZM10.73 17.5296L12.1441 18.944L12.1442 18.9438L10.73 17.5296ZM9.62612 18.5732L10.8561 20.1503L10.8564 20.15L9.62612 18.5732ZM8.58224 19.2184L7.7218 17.4129L7.72168 17.413L8.58224 19.2184ZM7.1552 19.7389L6.52297 17.8415L6.52268 17.8416L7.1552 19.7389ZM19.6384 8.6213L19.2097 10.5748L20.2787 10.8094L21.0526 10.0355L19.6384 8.6213ZM19.0668 8.45893L19.7224 6.56945L19.7223 6.56943L19.0668 8.45893ZM15.5411 4.93325L17.4306 4.27781L17.4305 4.27744L15.5411 4.93325ZM15.3787 4.36164L13.9645 2.94742L13.1904 3.7215L13.4252 4.79073L15.3787 4.36164ZM15.9724 3.76791L14.5582 2.35367L14.5582 2.35368L15.9724 3.76791ZM20.2321 3.76791L21.6464 2.35375L21.6463 2.35367L20.2321 3.76791ZM20.2321 8.02755L21.6463 9.44177L21.6464 9.44172L20.2321 8.02755ZM16.0532 3.84875C17.1849 2.71706 19.0197 2.71713 20.1512 3.8487L22.9797 1.02032C20.286 -1.67347 15.9185 -1.6734 13.2248 1.02028L16.0532 3.84875ZM20.1512 3.84874C21.2829 4.98038 21.2829 6.8151 20.1513 7.94672L22.9796 10.7752C25.6735 8.08146 25.6735 3.71402 22.9796 1.02028L20.1512 3.84874ZM20.1512 7.94674L10.6045 17.4935L13.4329 20.3219L22.9797 10.7752L20.1512 7.94674ZM10.6045 17.4935C10.0395 18.0585 9.80445 18.2891 9.55548 18.4834L12.0162 21.6369C12.4996 21.2597 12.9218 20.8331 13.4329 20.3219L10.6045 17.4935ZM9.55576 18.4831C9.23895 18.7303 8.89597 18.9422 8.53293 19.1153L10.2541 22.726C10.879 22.4282 11.4698 22.0631 12.0159 21.6371L9.55576 18.4831ZM8.53329 19.1151C8.24837 19.2508 7.93705 19.3579 7.17902 19.6106L8.44381 23.4054C9.12963 23.1768 9.70009 22.99 10.2537 22.7262L8.53329 19.1151ZM7.17895 19.6106L3.81905 20.7306L5.08398 24.5253L8.44388 23.4053L7.17895 19.6106ZM3.81904 20.7306L3.01236 20.9995L4.27733 24.7942L5.084 24.5253L3.81904 20.7306ZM3.01254 20.9995C3.00912 21.0006 3.00535 20.9997 3.00282 20.9972L0.17436 23.8256C1.24817 24.8994 2.83649 25.2744 4.27715 24.7943L3.01254 20.9995ZM3.0028 20.9972C3.00025 20.9946 2.99944 20.9909 3.00052 20.9877L-0.79418 19.7227C-1.27446 21.1634 -0.899436 22.7518 0.174377 23.8256L3.0028 20.9972ZM3.00054 20.9876L4.38938 16.821L0.594636 15.5561L-0.794203 19.7228L3.00054 20.9876ZM4.38939 16.8209C4.64207 16.0629 4.74909 15.7518 4.8848 15.467L1.27395 13.746C1.01001 14.2998 0.823161 14.8705 0.594633 15.5561L4.38939 16.8209ZM4.88486 15.4669C5.0578 15.104 5.26971 14.7611 5.51685 14.4443L2.36295 11.984C1.93696 12.5301 1.57179 13.121 1.27388 13.7462L4.88486 15.4669ZM5.51689 14.4442C5.71091 14.1955 5.94139 13.9605 6.50644 13.3955L3.67817 10.5669C3.16695 11.0781 2.74018 11.5004 2.36291 11.984L5.51689 14.4442ZM6.50652 13.3954L16.0532 3.84872L13.2248 1.0203L3.67809 10.567L6.50652 13.3954ZM5.82225 19.2406L4.75952 18.1778L1.93102 21.0062L2.99376 22.0689L5.82225 19.2406ZM5.24264 20.2244L6.15837 17.4772L2.36363 16.2123L1.4479 18.9595L5.24264 20.2244ZM6.15835 17.4772C6.44064 16.6304 6.50852 16.4431 6.58708 16.2782L2.97622 14.5573C2.76695 14.9964 2.61458 15.4595 2.36364 16.2123L6.15835 17.4772ZM6.5871 16.2782C6.70109 16.039 6.84084 15.8129 7.00398 15.6037L3.8496 13.144C3.5081 13.582 3.21522 14.0558 2.9762 14.5573L6.5871 16.2782ZM7.00378 15.6039C7.11613 15.4599 7.25327 15.3155 7.88465 14.6841L5.05602 11.8558C4.49505 12.4169 4.14892 12.7603 3.84981 13.1437L7.00378 15.6039ZM7.88454 14.6842L15.2903 7.27844L12.4619 4.45L5.05613 11.8557L7.88454 14.6842ZM12.0182 6.60464C12.4062 7.57822 13.0608 8.74674 14.1571 9.84302L16.9855 7.01455C16.3374 6.36647 15.9573 5.68393 15.734 5.1238L12.0182 6.60464ZM14.157 9.84291C15.2533 10.9394 16.422 11.5937 17.395 11.9817L18.8764 8.26609C18.316 8.04264 17.6334 7.66256 16.9856 7.01466L14.157 9.84291ZM16.7215 8.70967L9.3158 16.1154L12.1442 18.9438L19.5499 11.5381L16.7215 8.70967ZM9.31596 16.1153C8.68455 16.7466 8.54002 16.8839 8.3958 16.9964L10.8564 20.15C11.2397 19.8509 11.583 19.505 12.1441 18.944L9.31596 16.1153ZM8.39616 16.9961C8.18706 17.1592 7.96094 17.2989 7.7218 17.4129L9.44268 21.0238C9.94425 20.7848 10.4182 20.4918 10.8561 20.1503L8.39616 16.9961ZM7.72168 17.413C7.55697 17.4915 7.36971 17.5594 6.52297 17.8415L7.78743 21.6364C8.5404 21.3855 9.00356 21.2331 9.44281 21.0237L7.72168 17.413ZM6.52268 17.8416L3.77549 18.7574L5.04052 22.5521L7.78771 21.6363L6.52268 17.8416ZM20.0671 6.66779C19.9804 6.64876 19.8621 6.61794 19.7224 6.56945L18.4111 10.3484C18.7139 10.4535 18.9849 10.5255 19.2097 10.5748L20.0671 6.66779ZM19.7223 6.56943C19.3372 6.43579 18.8162 6.17853 18.3188 5.68114L15.4904 8.50963C16.4996 9.51872 17.5794 10.0598 18.4112 10.3484L19.7223 6.56943ZM18.3188 5.68114C17.8214 5.18381 17.5642 4.66295 17.4306 4.27781L13.6516 5.5887C13.9401 6.42055 14.4812 7.50047 15.4904 8.50963L18.3188 5.68114ZM17.4305 4.27744C17.382 4.13779 17.3512 4.01951 17.3321 3.93256L13.4252 4.79073C13.4745 5.01512 13.5465 5.28613 13.6517 5.58907L17.4305 4.27744ZM16.7929 5.77587L17.3866 5.18214L14.5582 2.35368L13.9645 2.94742L16.7929 5.77587ZM17.3866 5.18215C17.7819 4.7869 18.4227 4.7869 18.8179 5.18215L21.6463 2.35367C19.689 0.396387 16.5156 0.396387 14.5582 2.35367L17.3866 5.18215ZM18.8179 5.18207C19.2131 5.5773 19.2131 6.21816 18.8179 6.61339L21.6464 9.44172C23.6035 7.48441 23.6035 4.31105 21.6464 2.35375L18.8179 5.18207ZM18.8179 6.61334L18.2242 7.20709L21.0526 10.0355L21.6463 9.44177L18.8179 6.61334Z" fill="white" mask="url(#path-1-inside-1_5165_51132)"/>
</svg>
