<svg width="48" height="50" viewBox="0 0 48 50" fill="none" xmlns="http://www.w3.org/2000/svg">
<path d="M20.6143 25.1145C20.6053 25.2197 20.6175 25.3077 20.651 25.3784C21.0879 26.29 21.5254 27.2019 21.9634 28.1141C21.9688 28.1251 21.9714 28.1373 21.971 28.1496C21.9706 28.1618 21.9671 28.1737 21.961 28.1843C21.1589 29.5732 12.5317 44.5561 12.4982 44.5545C12.4913 44.554 12.4883 44.5526 12.4894 44.5505L16.6978 34.7344C16.7079 34.7105 16.7073 34.6868 16.6962 34.6635L12.6688 25.9621C12.6566 25.936 12.6361 25.9227 12.6074 25.9222C11.2604 25.9084 9.9185 25.9097 8.58162 25.9262C8.06813 25.9326 7.81458 26.1183 7.81458 26.6358C7.81351 30.7618 7.80714 34.8875 7.79544 39.013C7.79385 39.7609 7.5666 40.4394 6.67198 40.4434C3.81962 40.4546 2.01391 40.4551 1.25484 40.445C0.103478 40.4298 0.0205561 39.662 0.0205561 38.6741C0.0189614 26.5162 0.019228 14.3586 0.0213542 2.20126C0.0213542 1.31781 0.676768 1.02279 1.45976 1.02199C7.42547 1.01562 11.9406 1.01615 15.005 1.02359C17.0016 1.02837 18.8187 1.13123 20.6821 1.90385C24.3586 3.42758 26.0275 6.90239 26.0602 10.7225C26.0745 12.4251 26.0769 14.1276 26.0673 15.8302C26.0458 19.4797 24.9534 22.791 21.536 24.6042C21.2453 24.7583 20.9519 24.9082 20.6558 25.0539C20.6303 25.0661 20.6164 25.0863 20.6143 25.1145ZM14.9301 7.8002C12.8453 7.77309 10.76 7.76671 8.67411 7.78106C8.13032 7.78425 7.81458 7.86957 7.81458 8.47475C7.81298 11.94 7.81298 15.4053 7.81458 18.8705C7.81458 19.3138 7.91584 19.6527 8.41179 19.6559C9.66149 19.6633 11.839 19.6623 14.9444 19.6527C15.426 19.6511 15.9137 19.5599 16.4075 19.3792C17.7798 18.8777 18.2829 17.7279 18.2829 16.3286C18.2829 14.6765 18.2808 13.0247 18.2765 11.3731C18.2709 9.16525 17.2591 7.8305 14.9301 7.8002ZM33.0847 41.5047C33.0712 42.0054 33.426 42.1609 33.8653 42.1617C37.935 42.1633 42.0057 42.1633 46.0774 42.1617C46.7137 42.1611 47.127 42.2007 47.3173 42.2805C48.0174 42.5723 47.9671 43.258 47.9735 44.0306C47.9836 45.1682 47.9849 46.3065 47.9775 47.4457C47.9719 48.3299 47.7686 48.9765 46.7185 48.9773C40.1287 48.9805 33.5387 48.9811 26.9484 48.9789C25.6368 48.9789 25.2979 48.6409 25.2971 47.3364C25.2944 40.0142 25.2944 32.6914 25.2971 25.368C25.2976 25.258 25.3253 25.1554 25.38 25.0603C29.5799 17.7869 33.7784 10.5138 37.9756 3.241C37.9788 3.23462 37.982 3.23249 37.9852 3.23462C37.9972 3.2418 33.4978 13.7237 33.0863 14.6837C33.0753 14.7094 33.0696 14.7374 33.0696 14.7658V39.8031C33.0696 40.2728 33.0999 40.9354 33.0847 41.5047Z" fill="#1C1A1E"/>
</svg>
